<svg width="28" height="28" viewBox="0 0 28 28" fill="none" xmlns="http://www.w3.org/2000/svg">
<g clip-path="url(#clip0_30_4745)">
<path d="M27.5335 9.33365L16.5808 18.4337L16.0815 18.849C14.8733 19.8469 13.1269 19.8469 11.9188 18.849L11.4195 18.4337L0.466797 9.33365L4.6668 6.35632L9.68813 2.80032L11.2375 1.69899C11.2421 1.69899 11.2468 1.69432 11.2515 1.69432L11.9188 1.21832C13.125 0.214988 14.8753 0.214988 16.0815 1.21832L18.3121 2.80032L23.3335 6.35632L27.5335 9.33365Z" fill="#0F98BC" fill-opacity="0.08"/>
<path d="M23.3346 3.26798V12.6881L14.8757 19.6881L11.3757 18.3756L4.66797 12.6881V3.26798C4.68373 2.99683 4.91465 2.7888 5.18597 2.80132H22.8166C23.088 2.7888 23.3189 2.99683 23.3346 3.26798Z" fill="white"/>
<path d="M27.5335 9.33289L27.5335 26.5996C27.534 26.8595 27.4236 27.1073 27.2301 27.2809C27.061 27.4438 26.8349 27.5342 26.6001 27.5329H1.40013C1.16532 27.5342 0.939273 27.4438 0.770132 27.2809C0.576635 27.1073 0.466302 26.8595 0.466799 26.5996L0.466797 9.33289L11.4195 18.4329L11.9188 18.8482C13.1272 19.8453 14.873 19.8453 16.0815 18.8482L16.5808 18.4329L26.1335 10.4949L27.5335 9.33289Z" fill="#0F98BC" fill-opacity="0.08"/>
<path d="M14.5778 15.8625C13.5317 15.8576 12.4925 15.6937 11.4957 15.3764C9.90304 14.8436 8.72008 13.4953 8.39899 11.8469C8.04763 10.1545 8.68795 8.36505 10.1554 6.93752C10.3128 6.78417 10.4764 6.63728 10.6462 6.49685C12.1487 5.23896 14.1744 4.80182 16.0619 5.32813C17.8892 5.91137 19.1519 7.58136 19.2151 9.49849C19.2835 10.602 18.9238 11.6895 18.2108 12.5346C17.661 13.2272 16.77 13.5544 15.9026 13.3822C15.5478 13.3086 15.2383 13.0938 15.0453 12.7871C14.8721 12.4893 14.8276 12.1338 14.9222 11.8025C15.3303 10.2599 15.7453 7.91556 15.7494 7.89181C15.7783 7.72758 15.8927 7.5913 16.0495 7.53429C16.2062 7.47728 16.3814 7.5082 16.5091 7.61542C16.6369 7.72263 16.6977 7.88984 16.6687 8.05407C16.6514 8.1516 16.2428 10.4608 15.8247 12.041C15.7948 12.1286 15.8023 12.2246 15.8454 12.3065C15.9099 12.3958 16.0073 12.4558 16.1161 12.4733C16.6471 12.5619 17.1835 12.3489 17.509 11.92C18.0627 11.2577 18.3401 10.4076 18.2837 9.54614C18.2381 8.02013 17.2374 6.68784 15.7845 6.21881C14.1986 5.78261 12.4997 6.15525 11.2419 7.21514C11.092 7.3396 10.9461 7.46989 10.8062 7.60616C10.0808 8.31185 8.92226 9.77616 9.31263 11.6568C9.57491 12.9707 10.5133 14.0475 11.779 14.4869C13.9677 15.1851 17.1126 15.2692 18.7697 13.2088C18.9325 13.0128 19.2225 12.9835 19.4211 13.1432C19.6197 13.3029 19.6535 13.5924 19.497 13.7935C18.2717 15.3173 16.4071 15.8625 14.5778 15.8625Z" fill="#0F98BC"/>
<path d="M12.9813 13.4436C12.488 13.452 12.0069 13.2903 11.6189 12.9855C10.7232 12.2687 10.6985 11.0234 10.9496 10.1753C11.0342 9.89289 11.1478 9.61996 11.2885 9.36089C11.6386 8.65441 12.1985 8.07337 12.8915 7.69727C13.7546 7.24946 14.809 7.41927 15.4878 8.1154C15.8246 8.48446 16.0782 8.92146 16.2317 9.39692C16.3129 9.63819 16.1858 9.90008 15.946 9.9855C15.7061 10.0709 15.4421 9.94833 15.3526 9.71001C15.2419 9.35874 15.058 9.03495 14.813 8.76001C14.4172 8.3553 13.8006 8.26322 13.3039 8.53466C12.7842 8.82776 12.3665 9.27277 12.1069 9.81001C11.9978 10.0113 11.9097 10.2233 11.8439 10.4426C11.6626 11.056 11.7024 11.8566 12.2028 12.2573C12.7499 12.6966 13.6728 12.5109 14.1921 12.0629C14.5791 11.7146 14.9116 11.3101 15.1785 10.863C15.2649 10.7182 15.4228 10.6312 15.5914 10.6356C15.76 10.64 15.9131 10.7351 15.9919 10.8842C16.0706 11.0334 16.0628 11.2134 15.9714 11.3551C15.6552 11.8819 15.2616 12.3582 14.8038 12.7679C14.2935 13.1984 13.6489 13.4374 12.9813 13.4436Z" fill="#0F98BC"/>
<path d="M0.466667 11.6673C0.724091 11.6666 0.93259 11.4581 0.933333 11.2007V9.33398H0V11.2007C0.000743302 11.4581 0.209242 11.6666 0.466667 11.6673Z" fill="#0F98BC"/>
<path d="M0 26.6001H0.933333V14.9335C0.933333 14.6757 0.7244 14.4668 0.466667 14.4668C0.208934 14.4668 0 14.6757 0 14.9335V26.6001Z" fill="#0F98BC"/>
<path d="M0.934015 13.0682C0.932167 12.9447 0.883847 12.8264 0.798681 12.7369L0.728681 12.6809C0.702662 12.6632 0.674415 12.6491 0.644681 12.6389C0.61824 12.6254 0.589925 12.616 0.560681 12.6109C0.529821 12.6056 0.498636 12.6025 0.467348 12.6016C0.34379 12.6033 0.225444 12.6516 0.136015 12.7369C-0.0401298 12.9227 -0.0401298 13.2138 0.136015 13.3996C0.180656 13.4417 0.232922 13.475 0.290015 13.4976C0.346118 13.5215 0.406365 13.5342 0.467348 13.5349C0.59087 13.533 0.709156 13.4847 0.798681 13.3996C0.883808 13.31 0.932121 13.1918 0.934015 13.0682Z" fill="#0F98BC"/>
<path d="M26.6 28.0008H1.4C0.627153 28 0.000848731 27.3737 0 26.6008C0 26.3431 0.208934 26.1342 0.466667 26.1342C0.7244 26.1342 0.933333 26.3431 0.933333 26.6008C0.933668 26.8584 1.14241 27.0672 1.4 27.0675H26.6C26.8576 27.0673 27.0664 26.8585 27.0667 26.6008V10.3288L16.381 19.2094C14.9994 20.3512 13.0017 20.3515 11.6197 19.2101L0.168373 9.69302C-0.0274237 9.52764 -0.053206 9.2353 0.110623 9.0382C0.274452 8.84111 0.566575 8.81302 0.76496 8.97529L12.2156 18.4918C13.2517 19.3474 14.7493 19.3472 15.7851 18.4911L27.2347 8.97529C27.3738 8.85938 27.5675 8.83445 27.7315 8.91134C27.8954 8.98823 28.0001 9.15304 28 9.33415V26.6008C27.9992 27.3737 27.3728 28 26.6 28.0008Z" fill="#0F98BC"/>
<path d="M0.467123 9.80036C0.263857 9.80055 0.0838525 9.66914 0.0220942 9.47548C-0.039664 9.28183 0.0310318 9.07047 0.196877 8.95294L4.39688 5.97561C4.60715 5.82987 4.89557 5.88061 5.04348 6.08937C5.19139 6.29812 5.14365 6.58705 4.93644 6.73712L0.736437 9.71445C0.657792 9.77041 0.563647 9.80045 0.467123 9.80036Z" fill="#0F98BC"/>
<path d="M27.5334 9.80049C27.4369 9.80057 27.3427 9.77054 27.2641 9.71457L23.0641 6.73724C22.8569 6.58717 22.8091 6.29824 22.957 6.08949C23.1049 5.88073 23.3933 5.82999 23.6036 5.97573L27.8036 8.95307C27.9695 9.07059 28.0402 9.28195 27.9784 9.47561C27.9166 9.66926 27.7366 9.80067 27.5334 9.80049Z" fill="#0F98BC"/>
<path d="M18.3129 3.26766C18.2163 3.26771 18.1221 3.23769 18.0433 3.18175L15.8127 1.59975C14.7772 0.724744 13.2641 0.715629 12.2181 1.5781L9.95945 3.1818C9.82342 3.27826 9.64626 3.29483 9.4947 3.22526C9.34315 3.15569 9.24022 3.01054 9.22469 2.84451C9.20916 2.67847 9.2834 2.51676 9.41943 2.42029L11.6501 0.83829C13.0284 -0.288726 15.0125 -0.279762 16.3806 0.859664L18.5833 2.4201C18.7493 2.5376 18.82 2.74906 18.7582 2.94281C18.6964 3.13656 18.5163 3.26798 18.3129 3.26766Z" fill="#0F98BC"/>
<path d="M0.771785 27.7486C0.575117 27.7488 0.399449 27.6256 0.332545 27.4407C0.265641 27.2558 0.321861 27.0487 0.473119 26.923L11.1225 18.075C11.2504 17.9662 11.427 17.9346 11.5848 17.9922C11.7426 18.0498 11.8572 18.1877 11.885 18.3534C11.9128 18.519 11.8494 18.6869 11.719 18.7928L1.06966 27.6408C0.986048 27.7105 0.880638 27.7486 0.771785 27.7486Z" fill="#0F98BC"/>
<path d="M27.2287 27.7486C27.12 27.7486 27.0146 27.7105 26.9311 27.6408L16.2818 18.7928C16.1514 18.6869 16.088 18.519 16.1158 18.3534C16.1436 18.1877 16.2582 18.0498 16.416 17.9922C16.5738 17.9346 16.7504 17.9662 16.8784 18.075L27.5274 26.923C27.6787 27.0487 27.7349 27.2558 27.668 27.4407C27.6011 27.6256 27.4254 27.7487 27.2287 27.7486Z" fill="#0F98BC"/>
<path d="M23.3326 13.2916C23.0748 13.2916 22.8659 13.0827 22.8659 12.825V3.27127C22.8645 3.28107 22.8458 3.26786 22.8146 3.26763H5.18389C5.16326 3.26636 5.14301 3.27361 5.12789 3.28769L5.13255 12.825C5.13255 13.0827 4.92362 13.2916 4.66589 13.2916C4.40815 13.2916 4.19922 13.0827 4.19922 12.825V3.26763C4.21427 2.73838 4.65459 2.32102 5.18389 2.33429H22.8146C23.3438 2.32107 23.7841 2.7384 23.7992 3.26763V12.825C23.7992 13.0827 23.5903 13.2916 23.3326 13.2916Z" fill="#0F98BC"/>
</g>
<defs>
<clipPath id="clip0_30_4745">
<rect width="28" height="28" fill="white"/>
</clipPath>
</defs>
</svg>
