<svg width="28" height="28" viewBox="0 0 28 28" fill="none" xmlns="http://www.w3.org/2000/svg">
<g clip-path="url(#clip0_30_4770)">
<mask id="mask0_30_4770" style="mask-type:luminance" maskUnits="userSpaceOnUse" x="0" y="0" width="28" height="29">
<path d="M28 0.00097847H1.90735e-06V28.001H28V0.00097847Z" fill="white"/>
</mask>
<g mask="url(#mask0_30_4770)">
<path d="M4.81481 23.123C4.41504 23.5228 4.41504 24.1708 4.81481 24.57L5.94575 25.701C7.74168 27.4969 10.493 27.971 12.774 26.8532C20.7201 22.9567 24.8446 16.754 26.8489 12.7077C27.9755 10.4338 27.4904 7.69512 25.6956 5.90077L24.5898 4.79498C24.1906 4.39522 23.5425 4.39522 23.1433 4.79498L18.7738 9.16451C18.374 9.56379 18.374 10.2118 18.7738 10.611L20.6304 12.4676C21.1647 13.002 21.2878 13.8458 20.8809 14.4829C19.2419 17.0477 17.0648 19.2237 14.5027 20.8611C13.8656 21.268 13.0218 21.1449 12.4875 20.6107L10.6308 18.754C10.2316 18.3542 9.58356 18.3542 9.18434 18.754L4.81481 23.123Z" fill="#0F98BC" fill-opacity="0.08"/>
<path d="M12.0625 0.553844C5.71273 0.553844 0.546954 5.71962 0.546954 12.0693" stroke="#0F98BC" stroke-width="1.09375" stroke-miterlimit="10" stroke-linecap="round" stroke-linejoin="round"/>
<path d="M12.0625 3.84379C7.52721 3.84379 3.83695 7.5341 3.83695 12.0693" stroke="#0F98BC" stroke-width="1.09375" stroke-miterlimit="10" stroke-linecap="round" stroke-linejoin="round"/>
<path d="M12.0625 7.13439C9.3412 7.13439 7.1275 9.34809 7.1275 12.0693" stroke="#0F98BC" stroke-width="1.09375" stroke-miterlimit="10" stroke-linecap="round" stroke-linejoin="round"/>
<path d="M12.0625 10.4243C11.1541 10.4243 10.4175 11.161 10.4175 12.0693" stroke="#0F98BC" stroke-width="1.09375" stroke-miterlimit="10" stroke-linecap="round" stroke-linejoin="round"/>
<path d="M17.75 17.7637C17.75 18.0657 17.9948 18.3105 18.2969 18.3105C18.5989 18.3105 18.8438 18.0657 18.8438 17.7637C18.8438 17.4617 18.5989 17.2168 18.2969 17.2168C17.9948 17.2168 17.75 17.4617 17.75 17.7637Z" fill="#0F98BC"/>
<path d="M19.8956 15.8937C20.2425 15.438 20.5713 14.9674 20.881 14.4828C21.2878 13.8458 21.1647 13.002 20.6305 12.4677L18.7738 10.611C18.3741 10.2118 18.3741 9.56375 18.7738 9.16448L23.1434 4.795C23.5426 4.39518 24.1906 4.39518 24.5898 4.795L25.6956 5.90073C27.4904 7.69508 27.9755 10.4338 26.8489 12.7077C24.8446 16.754 20.7201 22.9567 12.774 26.8531C10.493 27.971 7.74168 27.4969 5.94574 25.7009L4.8148 24.5699C4.41509 24.1708 4.41509 23.5227 4.8148 23.1229L9.18439 18.754C9.58361 18.3542 10.2316 18.3542 10.6308 18.754L12.4875 20.6106C13.0218 21.1449 13.8656 21.2679 14.5027 20.8611C15.192 20.4206 15.8534 19.9411 16.484 19.4255" stroke="#0F98BC" stroke-width="1.09375" stroke-miterlimit="10" stroke-linecap="round" stroke-linejoin="round"/>
</g>
</g>
<defs>
<clipPath id="clip0_30_4770">
<rect width="28" height="28" fill="white" transform="matrix(-1 0 0 1 28 0)"/>
</clipPath>
</defs>
</svg>
