<svg width="28" height="28" viewBox="0 0 28 28" fill="none" xmlns="http://www.w3.org/2000/svg">
<g clip-path="url(#clip0_30_4795)">
<path d="M11.6305 21.0132L11.6518 20.9968L16.3429 20.9962L16.3642 21.0126C20.0479 21.3993 22.75 22.6675 22.75 24.1724C22.75 25.9848 18.8328 27.4537 14.0001 27.4537C9.1674 27.4537 5.25019 25.9848 5.25019 24.1725C5.25019 22.668 7.94951 21.4004 11.6305 21.0132Z" fill="#0F98BC" fill-opacity="0.08"/>
<path d="M13.9341 0.547613C9.10143 0.584253 5.21374 4.531 5.24984 9.36315C5.28046 13.4554 7.71515 15.8654 11.6515 20.9967C12.3843 21.9516 13.1691 23.0005 13.9998 24.1724C14.8283 22.9993 15.6114 21.9504 16.3426 20.9962C20.3292 15.7965 22.7809 13.4242 22.7497 9.23189C22.7131 4.39921 18.7663 0.511519 13.9341 0.547613ZM10.7185 9.32213C10.7049 7.50978 12.1628 6.02999 13.9751 6.01632C15.7874 6.00265 17.2673 7.46062 17.2809 9.27291C17.2946 11.0852 15.8366 12.5651 14.0244 12.5787C12.212 12.5924 10.7322 11.1345 10.7185 9.32213Z" fill="#0F98BC" fill-opacity="0.08"/>
<path d="M13.955 3.282C13.6531 3.28419 13.4065 3.04137 13.4043 2.7395C13.4021 2.43762 13.6449 2.19098 13.9468 2.18825C14.2492 2.18606 14.4958 2.42942 14.498 2.73129C14.5002 3.03317 14.2574 3.27981 13.955 3.282Z" fill="#0F98BC"/>
<path d="M13.9712 5.46946C16.0828 5.45447 17.812 7.15794 17.828 9.26883C17.8439 11.3796 16.1395 13.1097 14.0286 13.1256C14.0189 13.1257 14.0091 13.1257 13.9993 13.1257C11.9019 13.1257 10.1877 11.4273 10.1719 9.32625C10.1559 7.21558 11.8603 5.48537 13.9712 5.46946ZM13.9994 12.032C14.0063 12.032 14.0136 12.032 14.0204 12.0319C15.5282 12.0205 16.7457 10.7847 16.7343 9.27703C16.723 7.77613 15.4987 6.56305 14.0004 6.56305C13.9935 6.56305 13.9863 6.5631 13.9794 6.56316C12.4716 6.57453 11.2542 7.81036 11.2656 9.31804C11.2769 10.8189 12.5012 12.032 13.9994 12.032Z" fill="#0F98BC"/>
<path d="M11.614 2.603C11.8985 2.50205 12.2112 2.65107 12.3122 2.93578C12.4131 3.22048 12.2641 3.53302 11.9794 3.63397C9.57059 4.4877 7.96523 6.7819 7.98448 9.34276C7.98673 9.64474 7.74375 9.89144 7.44171 9.89373C7.44034 9.89373 7.43892 9.89373 7.4375 9.89373C7.13748 9.89373 6.89303 9.65158 6.89073 9.35096C6.86798 6.32417 8.76613 3.61237 11.614 2.603Z" fill="#0F98BC"/>
<path d="M4.703 9.36727C4.6645 4.21335 8.84711 0.000488281 14.0007 0.000488281C19.094 0.000488281 23.2578 4.12546 23.2966 9.22782C23.3278 13.4352 21.0124 15.8734 17.3499 20.5864C20.9934 21.1309 23.2966 22.499 23.2966 24.1724C23.2966 25.2933 22.2605 26.2992 20.379 27.0047C18.6666 27.6468 16.4011 28.0005 13.9998 28.0005C11.5985 28.0005 9.33296 27.6468 7.62053 27.0047C5.73911 26.2992 4.703 25.2933 4.703 24.1724C4.703 22.4998 7.00403 21.1321 10.6443 20.5872C7.00682 15.9051 4.73368 13.4636 4.703 9.36727ZM5.79675 24.1725C5.79675 25.4633 9.30479 26.9068 13.9998 26.9068C18.6949 26.9068 22.2029 25.4633 22.2029 24.1725C22.2029 23.2152 20.1058 22.006 16.5796 21.5872C15.8001 22.6099 15.1168 23.5391 14.4465 24.488C14.3441 24.6329 14.1778 24.7192 14.0003 24.7193C14.0002 24.7193 14 24.7193 13.9998 24.7193C13.8225 24.7193 13.6562 24.6334 13.5537 24.4887C12.8898 23.5521 12.1877 22.6001 11.4149 21.5878C7.89199 22.0069 5.79675 23.2158 5.79675 24.1725ZM12.0853 20.6638C12.7718 21.5582 13.4022 22.4039 13.999 23.2312C14.594 22.4034 15.2118 21.5729 15.9086 20.6634C19.9164 15.4362 22.2325 13.22 22.2029 9.23608C22.1687 4.7337 18.4951 1.09424 14.0005 1.09424C9.45278 1.09424 5.76273 4.81234 5.79669 9.35912C5.82584 13.2493 8.23653 15.6466 12.0853 20.6638Z" fill="#0F98BC"/>
</g>
<defs>
<clipPath id="clip0_30_4795">
<rect width="28" height="28" fill="white" transform="matrix(-1 0 0 1 28 0)"/>
</clipPath>
</defs>
</svg>
