<svg width="24" height="24" viewBox="0 0 24 24" fill="none" xmlns="http://www.w3.org/2000/svg">
<path d="M13 15.25C13 14.6533 13.2371 14.081 13.659 13.6591C14.081 13.2371 14.6533 13 15.25 13L18.75 13C19.3467 13 19.919 13.2371 20.341 13.6591C20.763 14.081 21 14.6533 21 15.25L21 18.75C21 19.3468 20.763 19.9191 20.341 20.341C19.919 20.763 19.3467 21 18.75 21L15.25 21C14.6533 21 14.081 20.763 13.659 20.341C13.2371 19.9191 13 19.3468 13 18.75L13 15.25ZM13 5.25005C13 4.65331 13.2371 4.08101 13.659 3.65906C14.081 3.2371 14.6533 3.00005 15.25 3.00005L18.75 3.00005C19.3467 3.00005 19.919 3.2371 20.341 3.65906C20.763 4.08101 21 4.65331 21 5.25005L21 8.75004C21 9.34678 20.763 9.91908 20.341 10.341C19.919 10.763 19.3467 11 18.75 11L15.25 11C14.6533 11 14.081 10.763 13.659 10.341C13.2371 9.91908 13 9.34678 13 8.75005L13 5.25005ZM3 15.25C3 14.6533 3.23705 14.081 3.65901 13.6591C4.08097 13.2371 4.65326 13 5.25 13L8.75 13C9.34674 13 9.91904 13.2371 10.341 13.6591C10.7629 14.081 11 14.6533 11 15.25L11 18.75C11 19.3468 10.7629 19.9191 10.341 20.341C9.91904 20.763 9.34674 21 8.75 21L5.25 21C4.65326 21 4.08097 20.763 3.65901 20.341C3.23705 19.9191 3 19.3468 3 18.75L3 15.25ZM3 5.25005C3 4.65331 3.23705 4.08101 3.65901 3.65906C4.08097 3.2371 4.65326 3.00005 5.25 3.00005L8.75 3.00005C9.34674 3.00005 9.91903 3.2371 10.341 3.65906C10.7629 4.08101 11 4.65331 11 5.25005L11 8.75005C11 9.34678 10.7629 9.91908 10.341 10.341C9.91903 10.763 9.34674 11 8.75 11L5.25 11C4.65326 11 4.08097 10.763 3.65901 10.341C3.23705 9.91908 3 9.34678 3 8.75005L3 5.25005Z" fill="#6C7275"/>
<path d="M6 21L6 13.002L18 13.002L18 21L6 21Z" fill="#6C7275"/>
<path d="M6 10.9981L6 3.00005L18 3.00005L18 10.9981L6 10.9981Z" fill="#6C7275"/>
</svg>
